<svg xmlns="http://www.w3.org/2000/svg"  viewBox="0 0 512 512" width="40px" height="40px"><rect width="64" height="224" x="64" y="136" fill="#57a4ff"/><rect width="64" height="224" x="384" y="136" fill="#57a4ff"/><path fill="#004fac" d="M496,184H456V136a8,8,0,0,0-8-8H384a8,8,0,0,0-8,8v88H136V136a8,8,0,0,0-8-8H64a8,8,0,0,0-8,8v48H16a8,8,0,0,0-8,8V320a8,8,0,0,0,8,8H56v32a8,8,0,0,0,8,8h64a8,8,0,0,0,8-8V288H376v72a8,8,0,0,0,8,8h64a8,8,0,0,0,8-8V328h40a8,8,0,0,0,8-8V192A8,8,0,0,0,496,184ZM56,312H24V200H56Zm64,40H72V144h48Zm256-80H136V240H376Zm64,80H392V144h48Zm48-40H456V200h32Z"/></svg>